<?xml version="1.0" encoding="UTF-8"?>
<svg width="16px" height="20px" viewBox="0 0 16 20" version="1.1" xmlns="http://www.w3.org/2000/svg" xmlns:xlink="http://www.w3.org/1999/xlink">
    <title>emoji_objects_FILL0_wght400_GRAD0_opsz24</title>
    <g id="Page-1" stroke="none" stroke-width="1" fill="none" fill-rule="evenodd">
        <g id="Step-1---General-information-1" transform="translate(-1107, -583)" fill="#007CBA" fill-rule="nonzero">
            <g id="Group-6" transform="translate(412, 228)">
                <g id="notice" transform="translate(671, 330)">
                    <g id="emoji_objects_FILL0_wght400_GRAD0_opsz24" transform="translate(24.7883, 25)">
                        <path d="M7.25,20 C6.81666667,20 6.425,19.8958333 6.075,19.6875 C5.725,19.4791667 5.45,19.2 5.25,18.85 C4.7,18.85 4.22916667,18.6541667 3.8375,18.2625 C3.44583333,17.8708333 3.25,17.4 3.25,16.85 L3.25,13.3 C2.26666667,12.65 1.47916667,11.7916667 0.8875,10.725 C0.295833333,9.65833333 0,8.5 0,7.25 C0,5.23333333 0.704166667,3.52083333 2.1125,2.1125 C3.52083333,0.704166667 5.23333333,0 7.25,0 C9.26666667,0 10.9791667,0.704166667 12.3875,2.1125 C13.7958333,3.52083333 14.5,5.23333333 14.5,7.25 C14.5,8.53333333 14.2041667,9.7 13.6125,10.75 C13.0208333,11.8 12.2333333,12.65 11.25,13.3 L11.25,16.85 C11.25,17.4 11.0541667,17.8708333 10.6625,18.2625 C10.2708333,18.6541667 9.8,18.85 9.25,18.85 C9.05,19.2 8.775,19.4791667 8.425,19.6875 C8.075,19.8958333 7.68333333,20 7.25,20 Z M5.25,16.85 L9.25,16.85 L9.25,15.95 L5.25,15.95 L5.25,16.85 Z M5.25,14.95 L9.25,14.95 L9.25,14 L5.25,14 L5.25,14.95 Z M5.05,12 L6.5,12 L6.5,9.3 L4.3,7.1 L5.35,6.05 L7.25,7.95 L9.15,6.05 L10.2,7.1 L8,9.3 L8,12 L9.45,12 C10.35,11.5666667 11.0833333,10.9291667 11.65,10.0875 C12.2166667,9.24583333 12.5,8.3 12.5,7.25 C12.5,5.78333333 11.9916667,4.54166667 10.975,3.525 C9.95833333,2.50833333 8.71666667,2 7.25,2 C5.78333333,2 4.54166667,2.50833333 3.525,3.525 C2.50833333,4.54166667 2,5.78333333 2,7.25 C2,8.3 2.28333333,9.24583333 2.85,10.0875 C3.41666667,10.9291667 4.15,11.5666667 5.05,12 Z" id="Shape"></path>
                    </g>
                </g>
            </g>
        </g>
    </g>
</svg>
